#!OML:ASF Y:\EmotionMaleHayes\Project 1\Capture day 1\Session 1\Male1.ASF
:FULLY-SPECIFIED
:DEGREES
60
root -30.3143 17.0628 0.725097 36.63 87.4196 36.2777
lowerback 2.73539 1.36669 -4.53175
upperback 0.668127 1.70215 -0.231388
thorax -0.971323 0.864812 2.2397
lowerneck -20.1561 1.07593 3.51935
upperneck 24.6713 0.852042 -0.89957
head 11.3946 0.697476 -0.770553
rclavicle -3.39798e-015 1.2921e-015
rhumerus -34.4318 9.97517 -92.4253
rradius 29.8831
rwrist 7.3366
rhand -8.69256 -30.932
rfingers 7.12502
rthumb 17.2424 -60.187
lclavicle -3.39798e-015 1.2921e-015
lhumerus -30.5692 -8.43187 92.6599
lradius 21.8579
lwrist -18.4193
lhand -14.0945 -26.898
lfingers 7.12502
lthumb 12.038 2.73577
rfemur 6.72902 -3.61485 14.6343
rtibia 4.04941
rfoot -15.5183 1.11988
rtoes 10.5781
lfemur 9.38414 0.576503 -17.3585
ltibia -0.918276
lfoot -10.6833 8.77345
ltoes -9.34973
61
root -30.2902 17.0505 0.708588 56.936 86.3177 56.8014
lowerback 2.57197 1.36104 -5.94328
upperback 0.835301 1.67811 -0.684534
thorax -0.731026 0.849519 2.56987
lowerneck -20.1734 1.0897 3.52625
upperneck 24.6286 0.86353 -0.889275
head 11.3822 0.703423 -0.766118
rclavicle 8.07563e-017 -9.93923e-016
rhumerus -34.4053 10.0072 -92.4421
rradius 29.8763
rwrist 7.43001
rhand -8.76151 -31.0655
rfingers 7.12502
rthumb 17.176 -60.3264
lclavicle 8.07563e-017 -9.93923e-016
lhumerus -30.4905 -8.40874 92.6412
lradius 21.8554
lwrist -18.4359
lhand -14.1123 -26.9124
lfingers 7.12502
lthumb 12.0208 2.72234
rfemur 7.23958 -4.65791 12.2451
rtibia 3.90098
rfoot -15.3215 2.27844
rtoes 11.2217
lfemur 9.79313 0.68254 -19.4756
ltibia -1.15239
lfoot -10.587 8.68489
ltoes -10.3974
62
root -30.3151 17.0572 0.719502 38.0985 87.4241 37.5907
lowerback 2.53205 1.35028 -4.52312
upperback 0.682235 1.69165 -0.268808
thorax -0.840768 0.856601 2.20202
lowerneck -20.2003 1.09755 3.5459
upperneck 24.5977 0.865785 -0.891795
head 11.3759 0.704922 -0.76997
rclavicle -7.34261e-015 1.02374e-014
rhumerus -34.4176 10.151 -92.5378
rradius 29.9352
rwrist 7.37921
rhand -8.83313 -31.274
rfingers 7.12502
rthumb 17.1071 -60.5408
lclavicle -7.34261e-015 1.02374e-014
lhumerus -30.46 -8.26518 92.5633
lradius 21.9073
lwrist -18.641
lhand -14.686 -26.919
lfingers 7.12502
lthumb 11.4676 2.74737
rfemur 6.64901 -3.4829 14.5888
rtibia 3.81392
rfoot -15.4424 0.998825
rtoes 11.6166
lfemur 9.20929 0.587286 -17.4432
ltibia -0.928268
lfoot -10.622 8.71834
ltoes -11.1536
63
root -30.2921 17.0496 0.702881 60.0084 86.1564 59.8309
lowerback 2.5419 1.33162 -6.1337
upperback 0.845057 1.63786 -0.761432
thorax -0.703284 0.829221 2.59934
lowerneck -20.2519 1.09201 3.51609
upperneck 24.6426 0.876308 -0.927224
head 11.4031 0.702663 -0.776331
rclavicle 7.01337e-015 4.77083e-015
rhumerus -34.4495 10.2871 -92.5744
rradius 30.0033
rwrist 7.21544
rhand -8.81937 -31.4693
rfingers 7.12502
rthumb 17.1203 -60.735
lclavicle 7.01337e-015 4.77083e-015
lhumerus -30.4616 -8.23351 92.5899
lradius 21.9336
lwrist -18.6774
lhand -16.1485 -26.7104
lfingers 7.12502
lthumb 10.0569 3.02926
rfemur 7.27477 -4.74056 11.9019
rtibia 3.72106
rfoot -15.2372 2.28663
rtoes 11.6285
lfemur 9.73249 0.602716 -19.8273
ltibia -1.15941
lfoot -10.6735 8.69243
ltoes -11.1634
64
root -30.3196 17.0587 0.718005 44.5093 87.2555 44.0539
lowerback 2.65061 1.32743 -4.87563
upperback 0.682118 1.64603 -0.34516
thorax -0.9114 0.836525 2.31955
lowerneck -20.3027 1.10857 3.55683
upperneck 24.7472 0.903941 -0.986087
head 11.4539 0.713265 -0.800494
rclavicle -5.05037e-015 -1.28216e-014
rhumerus -34.4596 10.1839 -92.5141
rradius 29.9291
rwrist 7.41516
rhand -8.77902 -31.3527
rfingers 7.12502
rthumb 17.1591 -60.6151
lclavicle -5.05037e-015 -1.28216e-014
lhumerus -30.5032 -8.37734 92.6571
lradius 21.963
lwrist -18.4632
lhand -14.6743 -26.7377
lfingers 7.12502
lthumb 11.4788 2.928
rfemur 6.73486 -3.48644 14.1776
rtibia 3.78338
rfoot -15.4614 0.858394
rtoes 10.5412
lfemur 9.20221 0.50389 -17.8807
ltibia -0.871177
lfoot -10.6834 8.81552
ltoes -11.1163
65
root -30.2975 17.0466 0.700463 62.0225 86.0912 61.7509
lowerback 2.50112 1.28263 -6.24797
upperback 0.80654 1.57155 -0.813967
thorax -0.715573 0.797585 2.61184
lowerneck -20.2922 1.15017 3.65164
upperneck 24.7573 0.940815 -1.01561
head 11.4575 0.735465 -0.821515
rclavicle 7.63457e-015 -2.34566e-014
rhumerus -34.4676 10.085 -92.4904
rradius 29.8382
rwrist 7.69214
rhand -8.74699 -31.0751
rfingers 7.12502
rthumb 17.19 -60.3348
lclavicle 7.63457e-015 -2.34566e-014
lhumerus -30.5066 -8.3274 92.6025
lradius 21.9615
lwrist -18.4679
lhand -13.9092 -26.7135
lfingers 7.12502
lthumb 12.2167 2.90974
rfemur 7.13457 -4.82015 11.7532
rtibia 3.82383
rfoot -15.31 2.10046
rtoes 9.93686
lfemur 9.52291 0.644513 -19.9843
ltibia -0.969171
lfoot -10.6365 8.63577
ltoes -11.423
66
root -30.3274 17.055 0.713841 44.967 87.3188 44.4122
lowerback 2.60113 1.29707 -4.80403
upperback 0.667852 1.60962 -0.388498
thorax -0.892407 0.818022 2.23731
lowerneck -20.2876 1.16181 3.70363
upperneck 24.7056 0.931195 -0.991226
head 11.4371 0.738129 -0.822727
rclavicle 9.97651e-015 -9.14409e-015
rhumerus -34.4708 10.127 -92.5492
rradius 29.8586
rwrist 7.66689
rhand -8.72184 -31.0306
rfingers 7.12502
rthumb 17.2142 -60.2881
lclavicle 9.97651e-015 -9.14409e-015
lhumerus -30.4736 -8.2418 92.524
lradius 21.94
lwrist -18.5877
lhand -14.2629 -26.8065
lfingers 7.12502
lthumb 11.8756 2.83672
rfemur 6.54129 -3.82636 14.1061
rtibia 3.93625
rfoot -15.4327 1.01347
rtoes 10.4858
lfemur 8.99987 0.592937 -17.8477
ltibia -0.728207
lfoot -10.6188 8.66425
ltoes -11.1854
67
root -30.2943 17.0359 0.689471 67.002 85.5009 66.7254
lowerback 2.39412 1.26634 -6.82275
upperback 0.854434 1.55152 -1.06797
thorax -0.611295 0.786214 2.67443
lowerneck -20.27 1.15591 3.74756
upperneck 24.7028 0.91901 -1.02556
head 11.4327 0.73249 -0.844688
rclavicle 4.78947e-015 1.2921e-014
rhumerus -34.3858 9.61307 -92.3899
rradius 29.7894
rwrist 8.18395
rhand -8.68449 -30.8839
rfingers 7.12502
rthumb 17.2501 -60.1383
lclavicle 4.78947e-015 1.2921e-014
lhumerus -30.4778 -8.3572 92.5459
lradius 21.9606
lwrist -18.4532
lhand -15.2415 -26.7419
lfingers 7.12502
lthumb 10.9319 2.95347
rfemur 7.16801 -5.72001 10.528
rtibia 3.94441
rfoot -15.1059 3.01498
rtoes 11.891
lfemur 9.52252 0.783815 -20.9158
ltibia -1.02907
lfoot -10.5161 8.48621
ltoes -11.4522
68
root -30.2997 17.0353 0.689943 67.7092 85.5637 67.429
lowerback 2.46421 1.23187 -6.80487
upperback 0.821441 1.49808 -1.05204
thorax -0.679552 0.76215 2.68076
lowerneck -20.1977 1.16649 3.80763
upperneck 24.7239 0.950559 -1.13379
head 11.4282 0.739574 -0.889846
rclavicle 1.37783e-014 1.07344e-014
rhumerus -34.3258 8.20983 -91.8868
rradius 29.6922
rwrist 9.74554
rhand -8.59536 -30.4953
rfingers 7.12502
rthumb 17.3359 -59.7421
lclavicle 1.37783e-014 1.07344e-014
lhumerus -30.5011 -8.3212 92.5561
lradius 21.9834
lwrist -18.2664
lhand -15.1579 -26.6467
lfingers 7.12502
lthumb 11.0125 3.04441
rfemur 7.15243 -5.71391 10.5763
rtibia 3.99818
rfoot -15.168 2.99514
rtoes 11.862
lfemur 9.42662 0.787068 -20.8479
ltibia -0.896894
lfoot -10.5385 8.43148
ltoes -11.6116
69
root -30.3289 17.0525 0.704253 58.5057 86.9162 58.1426
lowerback 2.80619 1.20217 -5.44846
upperback 0.707182 1.4564 -0.633493
thorax -0.964386 0.745613 2.34755
lowerneck -20.1948 1.16117 3.79864
upperneck 24.7613 0.944993 -1.12393
head 11.4416 0.738451 -0.885601
rclavicle -3.98812e-015 -6.75868e-015
rhumerus -34.4089 9.11315 -92.2648
rradius 29.7032
rwrist 8.93338
rhand -8.77546 -30.7577
rfingers 7.12502
rthumb 17.1626 -60.0198
lclavicle -3.98812e-015 -6.75868e-015
lhumerus -30.4895 -8.12879 92.4594
lradius 21.8414
lwrist -18.6741
lhand -15.099 -27.0765
lfingers 7.12502
lthumb 11.0693 2.61159
rfemur 6.88394 -4.53125 12.9124
rtibia 3.97983
rfoot -15.4341 1.65864
rtoes 11.1983
lfemur 9.17621 0.399971 -18.9171
ltibia -0.796198
lfoot -10.5401 8.63455
ltoes -10.4667
70
root -30.3298 17.0519 0.699658 58.3868 86.9521 57.9072
lowerback 2.71405 1.19456 -5.38215
upperback 0.682949 1.45283 -0.625824
thorax -0.936061 0.743184 2.32016
lowerneck -20.2211 1.13259 3.7075
upperneck 24.7734 0.915494 -1.06063
head 11.4496 0.7247 -0.851554
rclavicle 3.57191e-015 -2.5842e-015
rhumerus -34.3391 7.94342 -91.8077
rradius 29.6945
rwrist 10.098
rhand -8.45808 -30.5396
rfingers 7.12502
rthumb 17.468 -59.7747
lclavicle 3.57191e-015 -2.5842e-015
lhumerus -30.4408 -7.96789 92.4132
lradius 21.7708
lwrist -18.8671
lhand -16.3438 -27.3315
lfingers 7.12502
lthumb 9.86847 2.4172
rfemur 6.74876 -4.36821 13.0113
rtibia 3.9779
rfoot -15.4525 1.46252
rtoes 10.8799
lfemur 9.17213 -0.0697768 -19.0408
ltibia -1.0708
lfoot -10.5309 9.05354
ltoes -9.41514
71
root -30.3108 17.0433 0.682227 68.5436 85.8115 68.2634
lowerback 2.64368 1.20949 -6.50469
upperback 0.821429 1.46019 -1.04857
thorax -0.769649 0.74549 2.51449
lowerneck -20.2495 1.10491 3.71889
upperneck 24.73 0.860558 -1.03182
head 11.4372 0.703505 -0.851377
rclavicle 1.95927e-014 -1.2921e-014
rhumerus -34.3859 9.17279 -92.2949
rradius 29.818
rwrist 8.76916
rhand -8.65466 -30.8405
rfingers 7.12502
rthumb 17.2788 -60.0924
lclavicle 1.95927e-014 -1.2921e-014
lhumerus -30.3672 -7.95954 92.3539
lradius 21.7361
lwrist -18.7721
lhand -15.0057 -27.4045
lfingers 7.12502
lthumb 11.1593 2.2788
rfemur 7.14941 -5.21557 10.9756
rtibia 3.95549
rfoot -15.2864 2.42279
rtoes 11.3414
lfemur 9.57359 -0.29376 -20.9246
ltibia -1.32259
lfoot -10.6068 9.25
ltoes -10.0463
72
root -30.3022 17.0411 0.671775 71.6123 85.1479 71.4985
lowerback 2.67809 1.24343 -7.07706
upperback 0.904383 1.49719 -1.30256
thorax -0.713146 0.763897 2.57045
lowerneck -20.2641 1.10311 3.74085
upperneck 24.7147 0.837902 -0.991615
head 11.4337 0.700264 -0.843724
rclavicle -2.50966e-015 1.90833e-014
rhumerus -34.4419 8.92019 -92.3072
rradius 29.9654
rwrist 9.10798
rhand -8.76837 -31.4965
rfingers 7.12502
rthumb 17.1694 -60.7579
lclavicle -2.50966e-015 1.90833e-014
lhumerus -30.3757 -8.09293 92.3303
lradius 21.7457
lwrist -18.5952
lhand -16.0582 -27.5352
lfingers 7.12502
lthumb 10.144 2.20028
rfemur 7.38372 -5.67958 9.84435
rtibia 4.00962
rfoot -15.218 3.01533
rtoes 11.4368
lfemur 9.83126 -0.399314 -21.9444
ltibia -1.42111
lfoot -10.6585 9.39932
ltoes -10.5584
